<svg width="28" height="28" viewBox="0 0 28 28" fill="none" xmlns="http://www.w3.org/2000/svg">
  <path fill-rule="evenodd" clip-rule="evenodd" d="M14.4364 23.2621L21.2598 13.027C21.5278 12.6249 21.4192 12.0817 21.0171 11.8136C20.8734 11.7178 20.7045 11.6667 20.5317 11.6667H15.1667V5.22327C15.1667 4.74002 14.7749 4.34827 14.2917 4.34827C13.9991 4.34827 13.7259 4.49448 13.5636 4.7379L6.74025 14.973C6.47219 15.3751 6.58084 15.9183 6.98293 16.1864C7.12667 16.2822 7.29555 16.3333 7.46829 16.3333H12.8333V22.7767C12.8333 23.26 13.2251 23.6517 13.7083 23.6517C14.0009 23.6517 14.2741 23.5055 14.4364 23.2621Z" fill="white"/>
</svg>
