<svg width="28" height="28" viewBox="0 0 28 28" fill="none" xmlns="http://www.w3.org/2000/svg">
  <g opacity="0.6">
    <path opacity="0.3" fill-rule="evenodd" clip-rule="evenodd" d="M4.08334 24.5H23.9167C24.8832 24.5 25.6667 23.7165 25.6667 22.75V9.91663C25.6667 8.95013 24.8832 8.16663 23.9167 8.16663H11.6667L8.67924 5.17919C8.35105 4.851 7.90593 4.66663 7.4418 4.66663H4.08334C3.11685 4.66663 2.33334 5.45013 2.33334 6.41663V22.75C2.33334 23.7165 3.11685 24.5 4.08334 24.5Z" fill="white"/>
    <path fill-rule="evenodd" clip-rule="evenodd" d="M17.3688 14.9692H15.0862V12.6269C15.0862 12.3047 14.825 12.0436 14.5029 12.0436H13.309C12.9869 12.0436 12.7257 12.3047 12.7257 12.6269V14.9692H10.4431C10.121 14.9692 9.8598 15.2304 9.8598 15.5525C9.8598 15.6906 9.90875 15.8241 9.99794 15.9295L13.4607 20.0194C13.6689 20.2653 14.037 20.2958 14.2829 20.0877C14.3075 20.0668 14.3303 20.044 14.3511 20.0194L17.814 15.9295C18.0221 15.6836 17.9916 15.3155 17.7457 15.1073C17.6403 15.0181 17.5068 14.9692 17.3688 14.9692Z" fill="white"/>
  </g>
</svg>
