<svg width="28" height="28" viewBox="0 0 28 28" fill="none" xmlns="http://www.w3.org/2000/svg">
  <g opacity="0.6">
    <path d="M10.4749 21.9342C10.267 23.3796 8.79052 24.5 7 24.5C5.067 24.5 3.5 23.1942 3.5 21.5833C3.5 19.9725 5.067 18.6667 7 18.6667C7.40907 18.6667 7.80176 18.7251 8.16667 18.8326V6.92033C8.16667 6.3221 8.53974 5.79328 9.08768 5.61484L15.796 3.56321C16.6412 3.28798 17.5 3.94596 17.5 4.8687C17.5 5.78054 17.5 6.46441 17.5 6.92033C17.5 7.6042 16.8597 8.04097 16.3333 8.16667C15.576 8.34753 13.6316 8.73641 10.5 9.33333V21.6431C10.5 21.7478 10.4915 21.8448 10.4749 21.9342Z" fill="white"/>
    <path opacity="0.3" fill-rule="evenodd" clip-rule="evenodd" d="M18.6667 15.1666V12.8333C18.6667 12.189 19.189 11.6666 19.8333 11.6666C20.4777 11.6666 21 12.189 21 12.8333V15.1666H23.3333C23.9777 15.1666 24.5 15.689 24.5 16.3333C24.5 16.9776 23.9777 17.5 23.3333 17.5H21V19.8333C21 20.4776 20.4777 21 19.8333 21C19.189 21 18.6667 20.4776 18.6667 19.8333V17.5H16.3333C15.689 17.5 15.1667 16.9776 15.1667 16.3333C15.1667 15.689 15.689 15.1666 16.3333 15.1666H18.6667Z" fill="white"/>
  </g>
</svg>
