<svg width="28" height="28" viewBox="0 0 28 28" fill="none" xmlns="http://www.w3.org/2000/svg">
  <g opacity="0.6">
    <path opacity="0.3" fill-rule="evenodd" clip-rule="evenodd" d="M4.72508 20.3993L3.03391 18.7081C2.5783 18.2525 2.5783 17.5138 3.03391 17.0582L7.1587 12.9334L8.80862 14.5833C9.26423 15.039 10.0029 15.039 10.4585 14.5833C10.9141 14.1277 10.9141 13.389 10.4585 12.9334L8.80862 11.2835L17.0582 3.03393C17.5138 2.57832 18.2525 2.57832 18.7081 3.03393L20.3993 4.7251C19.649 5.85757 19.7727 7.39839 20.7705 8.39616C21.7683 9.39393 23.3091 9.51767 24.4416 8.76738L26.1327 10.4586C26.5884 10.9142 26.5884 11.6529 26.1327 12.1085L17.8832 20.3581L16.2332 18.7081C15.7776 18.2525 15.0389 18.2525 14.5833 18.7081C14.1277 19.1637 14.1277 19.9024 14.5833 20.3581L16.2332 22.008L12.1085 26.1328C11.6528 26.5884 10.9141 26.5884 10.4585 26.1328L8.76736 24.4416C9.51765 23.3091 9.39391 21.7683 8.39614 20.7705C7.39837 19.7728 5.85755 19.649 4.72508 20.3993ZM11.2835 15.4083C10.8279 15.8639 10.8279 16.6026 11.2835 17.0582L12.1085 17.8832C12.5641 18.3388 13.3028 18.3388 13.7584 17.8832C14.214 17.4276 14.214 16.6889 13.7584 16.2333L12.9334 15.4083C12.4778 14.9527 11.7391 14.9527 11.2835 15.4083Z" fill="white"/>
  </g>
</svg>
