<svg width="28" height="28" viewBox="0 0 28 28" fill="none" xmlns="http://www.w3.org/2000/svg">
  <g opacity="0.6">
    <path opacity="0.3" d="M23.3333 10.5H4.66668C3.37801 10.5 2.33334 11.5447 2.33334 12.8333V23.3333C2.33334 24.622 3.37801 25.6667 4.66668 25.6667H23.3333C24.622 25.6667 25.6667 24.622 25.6667 23.3333V12.8333C25.6667 11.5447 24.622 10.5 23.3333 10.5Z" fill="white"/>
    <path opacity="0.3" d="M21.5833 5.83331H6.41668C6.09451 5.83331 5.83334 6.09448 5.83334 6.41665V7.58331C5.83334 7.90548 6.09451 8.16665 6.41668 8.16665H21.5833C21.9055 8.16665 22.1667 7.90548 22.1667 7.58331V6.41665C22.1667 6.09448 21.9055 5.83331 21.5833 5.83331Z" fill="white"/>
    <path opacity="0.3" d="M19.25 1.16669H8.74999C8.42782 1.16669 8.16666 1.42785 8.16666 1.75002V2.91669C8.16666 3.23885 8.42782 3.50002 8.74999 3.50002H19.25C19.5722 3.50002 19.8333 3.23885 19.8333 2.91669V1.75002C19.8333 1.42785 19.5722 1.16669 19.25 1.16669Z" fill="white"/>
    <path fill-rule="evenodd" clip-rule="evenodd" d="M12.6389 23.3333C11.4576 23.3333 10.5 22.5353 10.5 21.5509C10.5 20.5665 11.4576 19.7685 12.6389 19.7685C12.8889 19.7685 13.1289 19.8042 13.3519 19.8699V14.9235C13.3519 14.5579 13.5798 14.2348 13.9147 14.1257L18.0142 12.8719C18.5307 12.7037 19.0556 13.1058 19.0556 13.6697V14.9235C19.0556 15.3414 18.6643 15.6083 18.3426 15.6852C17.8798 15.7957 16.6915 16.0333 14.7778 16.3981V21.5874C14.7778 21.6514 14.7726 21.7107 14.7625 21.7653C14.6354 22.6486 13.7331 23.3333 12.6389 23.3333Z" fill="white"/>
  </g>
</svg>
