<svg width="28" height="28" viewBox="0 0 28 28" fill="none" xmlns="http://www.w3.org/2000/svg">
  <g opacity="0.6">
    <path fill-rule="evenodd" clip-rule="evenodd" d="M12.8333 23.3334L18.0833 16.3334L23.3333 23.3334H12.8333Z" fill="white"/>
    <path opacity="0.3" fill-rule="evenodd" clip-rule="evenodd" d="M4.66666 23.3334L12.25 12.8334L19.8333 23.3334H4.66666Z" fill="white"/>
    <path opacity="0.3" d="M23.3333 4.66663H4.66668C3.37801 4.66663 2.33334 5.71129 2.33334 6.99996V21C2.33334 22.2886 3.37801 23.3333 4.66668 23.3333H23.3333C24.622 23.3333 25.6667 22.2886 25.6667 21V6.99996C25.6667 5.71129 24.622 4.66663 23.3333 4.66663Z" fill="white"/>
    <path d="M16.8797 17.2308C16.304 17.2308 15.831 17.1133 15.4605 16.8784C15.0901 16.6374 14.8165 16.3 14.6398 15.8662C14.4632 15.4324 14.3748 14.9203 14.3748 14.3299V10.7693H15.4434V14.357C15.4434 14.6824 15.4862 14.9866 15.5717 15.2698C15.6629 15.5469 15.8139 15.7698 16.0248 15.9385C16.2414 16.1072 16.532 16.1916 16.8968 16.1916C17.2672 16.1916 17.5522 16.1072 17.7517 15.9385C17.9569 15.7638 18.0993 15.5379 18.1791 15.2607C18.2646 14.9836 18.3074 14.6824 18.3074 14.357V10.7693H19.3845V14.3299C19.3845 14.9143 19.2962 15.4234 19.1195 15.8572C18.9428 16.291 18.6721 16.6284 18.3074 16.8693C17.9426 17.1103 17.4667 17.2308 16.8797 17.2308Z" fill="white"/>
    <path d="M8.61539 17.1585V10.7693H11.0006C11.3083 10.7693 11.599 10.8024 11.8726 10.8687C12.1461 10.9289 12.3884 11.0374 12.5992 11.194C12.8101 11.3446 12.9754 11.5525 13.0951 11.8176C13.2148 12.0827 13.2746 12.411 13.2746 12.8026C13.2746 13.128 13.2205 13.4141 13.1122 13.6612C13.0039 13.9082 12.8529 14.116 12.6591 14.2847C12.471 14.4534 12.2459 14.583 11.9837 14.6733L13.3088 17.1585H12.1119L10.9236 14.8541H9.68401V17.1585H8.61539ZM9.68401 13.8509H10.8552C11.049 13.8509 11.2257 13.8359 11.3853 13.8058C11.5506 13.7696 11.693 13.7124 11.8127 13.6341C11.9381 13.5557 12.0321 13.4503 12.0948 13.3178C12.1632 13.1792 12.2003 13.0045 12.206 12.7936C12.206 12.5406 12.1547 12.3417 12.0521 12.1972C11.9552 12.0526 11.8127 11.9501 11.6246 11.8899C11.4423 11.8296 11.2228 11.7995 10.9664 11.7995H9.68401V13.8509Z" fill="white"/>
  </g>
</svg>
