<svg width="28" height="28" viewBox="0 0 28 28" fill="none" xmlns="http://www.w3.org/2000/svg">
  <g opacity="0.6">
    <path fill-rule="evenodd" clip-rule="evenodd" d="M14 24.5C8.20101 24.5 3.5 19.799 3.5 14C3.5 8.20101 8.20101 3.5 14 3.5C19.799 3.5 24.5 8.20101 24.5 14C24.5 19.799 19.799 24.5 14 24.5ZM14 21C17.866 21 21 17.866 21 14C21 10.134 17.866 7 14 7C10.134 7 7 10.134 7 14C7 17.866 10.134 21 14 21Z" fill="white"/>
    <path opacity="0.3" fill-rule="evenodd" clip-rule="evenodd" d="M14 18.6667C16.5773 18.6667 18.6667 16.5774 18.6667 14C18.6667 11.4227 16.5773 9.33337 14 9.33337C11.4227 9.33337 9.33334 11.4227 9.33334 14C9.33334 16.5774 11.4227 18.6667 14 18.6667Z" fill="white"/>
  </g>
</svg>
