<svg width="28" height="28" viewBox="0 0 28 28" fill="none" xmlns="http://www.w3.org/2000/svg">
  <path fill-rule="evenodd" clip-rule="evenodd" d="M3.84615 4H24.1538C25.1735 4 26 4.55964 26 5.25V7.75C26 8.44036 25.1735 9 24.1538 9H3.84615C2.82655 9 2 8.44036 2 7.75V5.25C2 4.55964 2.82655 4 3.84615 4Z" fill="white"/>
  <path d="M24.1538 11.5H3.84615C2.82655 11.5 2 12.0596 2 12.75V15.25C2 15.9404 2.82655 16.5 3.84615 16.5H24.1538C25.1735 16.5 26 15.9404 26 15.25V12.75C26 12.0596 25.1735 11.5 24.1538 11.5Z" fill="white" fill-opacity="0.3"/>
  <path d="M24.1538 19H3.84615C2.82655 19 2 19.5596 2 20.25V22.75C2 23.4404 2.82655 24 3.84615 24H24.1538C25.1735 24 26 23.4404 26 22.75V20.25C26 19.5596 25.1735 19 24.1538 19Z" fill="white" fill-opacity="0.3"/>
</svg>
