<svg width="28" height="28" viewBox="0 0 28 28" fill="none" xmlns="http://www.w3.org/2000/svg">
  <path d="M10.8751 4H5.87502C4.83947 4 4 4.83947 4 5.87502V10.8751C4 11.9106 4.83947 12.7501 5.87502 12.7501H10.8751C11.9106 12.7501 12.7501 11.9106 12.7501 10.8751V5.87502C12.7501 4.83947 11.9106 4 10.8751 4Z" fill="white"/>
  <path opacity="0.3" fill-rule="evenodd" clip-rule="evenodd" d="M5.87502 15.2501H10.8751C11.9106 15.2501 12.7501 16.0896 12.7501 17.1251V22.1251C12.7501 23.1607 11.9106 24.0002 10.8751 24.0002H5.87502C4.83947 24.0002 4 23.1607 4 22.1251V17.1251C4 16.0896 4.83947 15.2501 5.87502 15.2501ZM17.1251 4H22.1251C23.1607 4 24.0002 4.83947 24.0002 5.87502V10.8751C24.0002 11.9106 23.1607 12.7501 22.1251 12.7501H17.1251C16.0896 12.7501 15.2501 11.9106 15.2501 10.8751V5.87502C15.2501 4.83947 16.0896 4 17.1251 4ZM17.1251 15.2501H22.1251C23.1607 15.2501 24.0002 16.0896 24.0002 17.1251V22.1251C24.0002 23.1607 23.1607 24.0002 22.1251 24.0002H17.1251C16.0896 24.0002 15.2501 23.1607 15.2501 22.1251V17.1251C15.2501 16.0896 16.0896 15.2501 17.1251 15.2501Z" fill="white"/>
</svg>
