<svg width="24" height="24" viewBox="0 0 24 24" fill="none" xmlns="http://www.w3.org/2000/svg">
  <path d="M11.6205 7.82554L12 8.26795L12.3795 7.82554C12.8701 7.2536 13.5667 6.5321 14.326 5.9581C15.1023 5.37126 15.8645 5 16.5 5C17.7678 5 18.7511 5.53263 19.4283 6.37718C20.1137 7.23204 20.5 8.42818 20.5 9.75C20.5 11.0759 19.8371 12.5226 18.3826 14.0984C16.971 15.6275 14.8512 17.2364 12 18.9202C9.1501 17.2363 7.03157 15.6118 5.62081 14.0522C4.16868 12.4468 3.5 10.9489 3.5 9.55041C3.5 8.22979 3.88543 7.08908 4.56339 6.28751C5.23365 5.49502 6.21693 5 7.5 5C8.13553 5 8.89766 5.37126 9.67395 5.9581C10.4333 6.5321 11.1299 7.2536 11.6205 7.82554Z" stroke="white"/>
</svg>
