<svg width="28" height="28" viewBox="0 0 28 28" fill="none" xmlns="http://www.w3.org/2000/svg">
  <path fill-rule="evenodd" clip-rule="evenodd" d="M12.25 5.83331H22.75C23.7165 5.83331 24.5 6.61681 24.5 7.58331C24.5 8.54981 23.7165 9.33331 22.75 9.33331H12.25C11.2835 9.33331 10.5 8.54981 10.5 7.58331C10.5 6.61681 11.2835 5.83331 12.25 5.83331ZM12.25 11.6666H22.75C23.7165 11.6666 24.5 12.4501 24.5 13.4166C24.5 14.3831 23.7165 15.1666 22.75 15.1666H12.25C11.2835 15.1666 10.5 14.3831 10.5 13.4166C10.5 12.4501 11.2835 11.6666 12.25 11.6666ZM12.25 17.5H22.75C23.7165 17.5 24.5 18.2835 24.5 19.25C24.5 20.2165 23.7165 21 22.75 21H12.25C11.2835 21 10.5 20.2165 10.5 19.25C10.5 18.2835 11.2835 17.5 12.25 17.5Z" fill="white"/>
  <path opacity="0.3" fill-rule="evenodd" clip-rule="evenodd" d="M6.41669 9.33331C5.45019 9.33331 4.66669 8.54981 4.66669 7.58331C4.66669 6.61681 5.45019 5.83331 6.41669 5.83331C7.38319 5.83331 8.16669 6.61681 8.16669 7.58331C8.16669 8.54981 7.38319 9.33331 6.41669 9.33331ZM6.41669 15.1666C5.45019 15.1666 4.66669 14.3831 4.66669 13.4166C4.66669 12.4501 5.45019 11.6666 6.41669 11.6666C7.38319 11.6666 8.16669 12.4501 8.16669 13.4166C8.16669 14.3831 7.38319 15.1666 6.41669 15.1666ZM6.41669 21C5.45019 21 4.66669 20.2165 4.66669 19.25C4.66669 18.2835 5.45019 17.5 6.41669 17.5C7.38319 17.5 8.16669 18.2835 8.16669 19.25C8.16669 20.2165 7.38319 21 6.41669 21Z" fill="white"/>
</svg>
